HIERARCHY
ROOT root
{
	OFFSET 0.000000 0.000000 0.000000
	CHANNELS 6 Xposition Yposition Zposition Zrotation Yrotation Xrotation
	JOINT lhip
	{
		OFFSET 0.058581 -0.082280 -0.017664
		CHANNELS 3 Zrotation Yrotation Xrotation
		JOINT lknee
		{
			OFFSET 0.043451 -0.386469 0.008037
			CHANNELS 3 Zrotation Yrotation Xrotation
			JOINT lankle
			{
				OFFSET -0.014790 -0.426874 -0.037428
				CHANNELS 3 Zrotation Yrotation Xrotation
				JOINT ltoe
				{
					OFFSET 0.041054 -0.060286 0.122042
					CHANNELS 3 Zrotation Yrotation Xrotation
					End Site
					{
						OFFSET 0.000000 0.000000 0.000000
					}
				}
			}
		}
	}
	JOINT rhip
	{
		OFFSET -0.060310 -0.090513 -0.013543
		CHANNELS 3 Zrotation Yrotation Xrotation
		JOINT rknee
		{
			OFFSET -0.043257 -0.383688 -0.004843
			CHANNELS 3 Zrotation Yrotation Xrotation
			JOINT rankle
			{
				OFFSET 0.019056 -0.420046 -0.034562
				CHANNELS 3 Zrotation Yrotation Xrotation
				JOINT rtoe
				{
					OFFSET -0.034840 -0.062106 0.130323
					CHANNELS 3 Zrotation Yrotation Xrotation
					End Site
					{
						OFFSET 0.000000 0.000000 0.000000
					}
				}
			}
		}
	}
	JOINT lowerback
	{
		OFFSET 0.004439 0.124404 -0.038385
		CHANNELS 3 Zrotation Yrotation Xrotation
		JOINT upperback
		{
			OFFSET 0.004488 0.137956 0.026820
			CHANNELS 3 Zrotation Yrotation Xrotation
			JOINT chest
			{
				OFFSET -0.002265 0.056032 0.002855
				CHANNELS 3 Zrotation Yrotation Xrotation
				JOINT lowerneck
				{
					OFFSET -0.013390 0.211636 -0.033468
					CHANNELS 3 Zrotation Yrotation Xrotation
					JOINT upperneck
					{
						OFFSET 0.010113 0.088937 0.050410
						CHANNELS 3 Zrotation Yrotation Xrotation
						End Site
						{
							OFFSET 0.000000 0.000000 0.000000
						}
					}
				}
				JOINT lclavicle
				{
					OFFSET 0.071702 0.114000 -0.018898
					CHANNELS 3 Zrotation Yrotation Xrotation
					JOINT lshoulder
					{
						OFFSET 0.122921 0.045205 -0.019046
						CHANNELS 3 Zrotation Yrotation Xrotation
						JOINT lelbow
						{
							OFFSET 0.255332 -0.015649 -0.022946
							CHANNELS 3 Zrotation Yrotation Xrotation
							JOINT lwrist
							{
								OFFSET 0.265709 0.012698 -0.007375
								CHANNELS 3 Zrotation Yrotation Xrotation
								End Site
								{
									OFFSET 0.000000 0.000000 0.000000
								}
							}
						}
					}
				}
				JOINT rclavicle
				{
					OFFSET -0.082954 0.112472 -0.023707
					CHANNELS 3 Zrotation Yrotation Xrotation
					JOINT rshoulder
					{
						OFFSET -0.113228 0.046853 -0.008472
						CHANNELS 3 Zrotation Yrotation Xrotation
						JOINT relbow
						{
							OFFSET -0.260127 -0.014369 -0.031269
							CHANNELS 3 Zrotation Yrotation Xrotation
							JOINT rwrist
							{
								OFFSET -0.269108 0.006794 -0.006027
								CHANNELS 3 Zrotation Yrotation Xrotation
								End Site
								{
									OFFSET 0.000000 0.000000 0.000000
								}
							}
						}
					}
				}
			}
		}
	}
}
MOTION
Frames: 10
Frame Time: 0.033333
-1.324251 0.945312 0.835722 75.106515 6.509138 93.713616 23.217229 12.167732 -21.405805 -23.999331 -15.674642 67.354716 -0.890029 8.421921 -41.256046 0.000000 -0.000000 0.000000 -14.143575 -10.010104 -45.464661 12.236136 7.779780 50.980645 12.812265 -9.219928 -15.842896 0.000000 -0.000000 0.000000 -2.310526 -4.066658 20.665792 2.195347 0.349214 -16.128887 1.088579 -1.861247 0.992878 4.404863 -2.599917 -6.208564 2.294428 -6.894579 0.804097 5.298008 16.717736 -9.292283 10.383056 3.392330 -24.932637 4.592145 -8.905554 -22.748219 -9.379861 -12.422668 3.385167 -3.149016 -15.291081 -14.634798 -5.699609 -0.985306 -18.084961 -10.703977 4.898391 -16.339063 35.864037 -0.501185 6.657572 
-1.323026 0.944195 0.835208 75.163475 6.468400 93.850392 23.235196 12.326440 -21.561535 -23.904093 -15.671363 67.584876 -0.672527 8.380718 -41.422881 0.000000 -0.000000 0.000000 -14.136903 -10.150045 -45.710138 12.353412 7.749809 51.370501 12.733854 -9.246902 -16.023771 0.000000 -0.000000 0.000000 -2.381644 -4.064009 21.092431 2.085102 0.464923 -16.845454 1.207885 -1.547211 0.877348 4.471725 -2.812884 -7.208522 2.109692 -6.702411 0.754287 5.876301 17.024255 -9.550951 10.403058 3.241753 -25.220000 4.925285 -9.593301 -22.566292 -8.586771 -12.967520 2.755199 -3.624169 -15.942019 -15.559252 -6.714170 -1.132187 -19.080078 -11.243309 4.579853 -16.878956 34.489084 -0.177699 7.556766 
-1.322715 0.942214 0.833761 75.042070 6.417712 94.096087 23.415665 12.571684 -21.867329 -24.014624 -15.408084 67.855621 -0.497427 8.293787 -41.416189 0.000000 -0.000000 0.000000 -14.227979 -10.053029 -46.200936 12.446209 7.526601 51.769687 13.003290 -9.320186 -16.088805 0.000000 -0.000000 0.000000 -2.379348 -4.154703 21.090897 2.018746 0.559268 -17.033688 1.253024 -1.718048 0.808311 4.129207 -2.887627 -7.283072 2.390397 -6.196917 -0.347877 5.806116 17.304869 -9.400943 10.595722 4.088666 -25.333868 5.428339 -10.533644 -23.547994 -6.942103 -13.080734 2.097211 -4.522849 -16.097481 -14.985906 -6.343107 -1.984233 -19.053561 -11.790235 5.701028 -18.063806 32.335851 0.526728 6.195210 
-1.323916 0.940759 0.832323 75.143515 6.412252 94.526754 23.553418 12.700931 -22.528240 -24.127371 -15.299093 68.112701 -0.823097 8.233533 -41.406596 0.000000 -0.000000 0.000000 -14.224002 -10.034728 -47.013177 12.396674 7.176466 52.238248 13.077641 -9.348822 -16.203625 0.000000 -0.000000 0.000000 -2.359991 -4.346712 21.402248 1.827440 0.707455 -17.313258 1.129889 -1.427228 0.918537 4.509431 -3.024655 -8.084053 2.523728 -6.268783 -1.218393 5.787068 17.793713 -9.529583 10.060034 3.780526 -25.322712 6.357383 -11.237074 -24.316282 -4.976324 -13.239300 0.396791 -4.051621 -16.884007 -15.707065 -6.434599 -1.893853 -19.342513 -12.404197 5.873462 -19.362015 29.512884 1.057236 6.335433 
-1.325655 0.939343 0.830500 75.007798 6.331149 94.595662 23.621764 12.896051 -22.845624 -24.212040 -15.159951 68.492009 -0.780179 8.236436 -41.305566 0.000000 -0.000000 0.000000 -14.229615 -10.048986 -47.528636 12.422475 7.010331 52.664021 12.680916 -9.164825 -16.351739 0.000000 -0.000000 0.000000 -2.391777 -4.252840 21.956785 1.672881 0.847791 -16.966134 1.100554 -1.561985 1.044965 4.608311 -3.013865 -8.907012 2.485261 -6.137600 -1.563135 5.168125 18.213512 -9.671161 9.281280 4.000856 -25.295551 7.347735 -12.027030 -25.170209 -2.117437 -13.494314 -0.075087 -3.880079 -16.906745 -15.208677 -5.494769 -2.571518 -19.169445 -13.034959 6.317024 -21.423893 26.401754 2.205121 5.230847 
-1.328891 0.938104 0.828212 74.686834 6.289409 94.878616 23.759626 13.133741 -23.516869 -24.258905 -14.758022 68.894451 -0.650443 8.165223 -41.304952 0.000000 -0.000000 0.000000 -14.124582 -9.981102 -48.521449 12.577962 6.878671 53.156485 12.843623 -8.997593 -16.165690 0.000000 -0.000000 0.000000 -2.363704 -4.299961 22.280551 1.516108 1.025747 -16.719329 1.131377 -1.727257 1.357609 4.239276 -3.172738 -8.848002 2.700578 -5.922683 -2.259014 4.232502 18.407879 -9.465114 8.245188 4.321297 -25.198778 8.413953 -12.356848 -26.752850 1.823868 -13.438014 -1.689136 -3.700716 -16.723389 -14.666150 -4.529148 -2.558755 -19.437712 -13.054971 6.140442 -22.883885 22.293801 3.046731 4.252442 
-1.332195 0.937762 0.826439 74.496570 6.278676 94.829080 23.835559 13.321982 -23.753509 -24.131200 -14.766071 69.164051 -0.940793 8.000571 -41.183124 0.000000 -0.000000 0.000000 -14.045000 -10.071007 -48.978179 12.510634 6.721269 53.315137 12.707478 -8.716913 -15.823735 0.000000 -0.000000 0.000000 -2.303367 -4.324882 22.951026 1.326870 1.262395 -15.904354 1.006601 -1.621821 1.860890 4.336994 -3.356371 -9.505812 2.929465 -6.070818 -2.625201 3.195085 18.803817 -9.794527 6.712529 3.773244 -24.976806 9.267993 -12.630247 -27.135246 4.921743 -13.552799 -2.918564 -2.546176 -16.889330 -15.089100 -3.888021 -2.237742 -19.694348 -12.773201 5.545194 -24.584319 19.431872 4.104321 3.468499 
-1.336088 0.937763 0.824512 74.433073 6.246016 94.598068 23.779789 13.240290 -24.107453 -24.225730 -14.731522 69.793291 -0.718004 8.119771 -41.241020 0.000000 -0.000000 0.000000 -14.143049 -10.106507 -49.236790 12.739750 6.529205 53.625219 13.030255 -8.782108 -15.594266 0.000000 -0.000000 0.000000 -2.031660 -4.351327 23.799140 1.143378 1.292032 -15.124221 0.743876 -1.623369 2.435532 4.451396 -3.549118 -9.506088 2.913056 -6.214141 -2.604832 2.579732 18.781624 -9.532588 4.985327 3.456614 -24.372476 9.519203 -12.481464 -26.337773 9.638491 -13.122946 -3.369353 -2.051719 -16.518501 -15.063463 -2.287054 -1.769710 -19.827562 -12.502485 4.681987 -26.036779 13.469979 4.642214 2.306057 
-1.340126 0.938046 0.822894 74.248445 6.156393 94.209582 23.770164 13.315667 -24.089844 -24.190754 -14.711445 70.073119 -0.722903 8.145146 -41.175448 0.000000 -0.000000 0.000000 -13.965654 -10.318343 -49.463893 12.777773 6.732192 53.866270 12.522970 -8.671789 -15.420717 0.000000 -0.000000 0.000000 -2.017528 -4.178071 24.673429 0.996326 1.376913 -14.014725 0.695238 -1.539604 2.999494 4.460085 -3.718221 -9.309095 3.132220 -6.131481 -2.704022 2.051449 18.444456 -9.435868 3.045480 2.856694 -23.619086 9.657232 -12.092386 -25.861938 13.814093 -12.882726 -4.133369 -1.198710 -15.909417 -14.911305 -1.433695 -1.670631 -20.015580 -11.313691 3.475931 -27.359530 9.648569 5.149145 1.135982 
-1.343647 0.938722 0.821228 74.310690 6.159672 93.855072 23.796360 13.030592 -24.214835 -24.200112 -14.675831 70.469485 -0.898238 8.235870 -41.080147 0.000000 -0.000000 0.000000 -14.145821 -10.330579 -49.302006 12.759836 6.476989 53.826459 12.585754 -8.448362 -15.162104 0.000000 -0.000000 0.000000 -1.904952 -4.136419 25.487150 1.070844 1.302645 -12.898669 0.833690 -1.618462 3.417452 4.124612 -3.831386 -8.390606 3.265791 -6.091581 -2.917725 1.203815 18.099672 -9.591990 1.124815 2.326449 -22.873052 9.876018 -12.065871 -25.500070 17.055841 -12.127228 -5.063739 -0.715590 -14.879854 -14.644035 -0.280354 -1.102852 -20.250717 -10.803892 2.316544 -28.998428 5.528604 5.291551 0.012118 
